<svg width="720" height="1280" xmlns="http://www.w3.org/2000/svg" xmlns:xlink="http://www.w3.org/1999/xlink" overflow="hidden"><g><rect x="0" y="0" width="720" height="1280" fill="#FFFFFF"/><rect x="151" y="109" width="91" height="56" stroke="#042433" stroke-width="2" stroke-miterlimit="8" fill="#156082"/><text fill="#FFFFFF" font-family="Aptos,Aptos_MSFontService,sans-serif" font-weight="700" font-size="11" transform="translate(170.386 140)">Requested</text><rect x="242" y="204" width="91" height="68" stroke="#042433" stroke-width="2" stroke-miterlimit="8" fill="#156082"/><text fill="#FFFFFF" font-family="Aptos,Aptos_MSFontService,sans-serif" font-weight="700" font-size="11" transform="translate(272.689 242)">Saved</text><path d="M340.443 230.959 363.997 230.959 362.997 231.959 362.997 179.957 363.997 180.957 288 180.957 289 179.957 289 197.333 287 197.333 287 178.957 364.997 178.957 364.997 232.959 340.443 232.959ZM341.777 235.959 333.777 231.959 341.777 227.959ZM292 196 288 204 284 196Z" fill="#156082"/><text font-family="Aptos,Aptos_MSFontService,sans-serif" font-weight="700" font-size="9" transform="translate(341.364 165)">Save</text><rect x="151" y="316" width="185" height="56" stroke="#042433" stroke-width="2" stroke-miterlimit="8" fill="#156082"/><text fill="#FFFFFF" font-family="Aptos,Aptos_MSFontService,sans-serif" font-weight="700" font-size="11" transform="translate(218.675 348)">Validation</text><text font-family="Aptos,Aptos_MSFontService,sans-serif" font-weight="700" font-size="9" transform="translate(297.72 295)">Submit</text><path d="M0-1 74.1965-1 74.1965 38.6102 72.1965 38.6102 72.1965 0 73.1965 1 0 1ZM77.1965 37.2768 73.1965 45.2768 69.1965 37.2768Z" fill="#156082" transform="matrix(1.83697e-16 1 1 -1.83697e-16 196 165)"/><text font-family="Aptos,Aptos_MSFontService,sans-serif" font-weight="700" font-size="9" transform="translate(205.646 195)">Save</text><path d="M174 165 174 309.826 172 309.826 172 165ZM177 308.493 173 316.493 169 308.493Z" fill="#156082"/><text font-family="Aptos,Aptos_MSFontService,sans-serif" font-weight="700" font-size="9" transform="translate(130.567 236)">Submit</text><path d="M197 78 197 102.309 195 102.309 195 78ZM200 100.975 196 108.975 192 100.975Z" fill="#156082"/><text font-family="Aptos,Aptos_MSFontService,sans-serif" font-weight="700" font-size="9" transform="translate(209.071 88)">Prefill/Import</text><rect x="145" y="920" width="195" height="56" stroke="#042433" stroke-width="2" stroke-miterlimit="8" fill="#156082"/><text fill="#FFFFFF" font-family="Aptos,Aptos_MSFontService,sans-serif" font-weight="700" font-size="11" transform="translate(222.471 952)">Delivery</text><rect x="145" y="1032" width="195" height="55" stroke="#042433" stroke-width="2" stroke-miterlimit="8" fill="#156082"/><text fill="#FFFFFF" font-family="Aptos,Aptos_MSFontService,sans-serif" font-weight="700" font-size="11" transform="translate(218.995 1063)">Delivered</text><rect x="226" y="544" width="186" height="56" stroke="#042433" stroke-width="2" stroke-miterlimit="8" fill="#156082"/><text fill="#FFFFFF" font-family="Aptos,Aptos_MSFontService,sans-serif" font-weight="700" font-size="11" transform="translate(273.803 575)">Workflow: Pending</text><path d="M173 976 173 1024.79 171 1024.79 171 976ZM176 1023.46 172 1031.46 168 1023.46Z" fill="#156082"/><rect x="225" y="824" width="185" height="56" stroke="#042433" stroke-width="2" stroke-miterlimit="8" fill="#156082"/><text fill="#FFFFFF" font-family="Aptos,Aptos_MSFontService,sans-serif" font-weight="700" font-size="11" transform="translate(269.124 856)">Workflow: Approved</text><path d="M244 600 244 817.794 242 817.794 242 600ZM247 816.461 243 824.461 239 816.461Z" fill="#156082"/><rect x="330" y="736" width="185" height="56" stroke="#042433" stroke-width="2" stroke-miterlimit="8" fill="#156082"/><text fill="#FFFFFF" font-family="Aptos,Aptos_MSFontService,sans-serif" font-weight="700" font-size="11" transform="translate(370.57 768)">Workflow: Authorised</text><text font-family="Aptos,Aptos_MSFontService,sans-serif" font-weight="700" font-size="9" transform="translate(251.876 616)">Approve</text><path d="M0.999994-0.00344531 1.11487 33.34-0.885115 33.3469-0.999994 0.00344531ZM4.11026 31.9963 0.137848 40.0101-3.88969 32.0239Z" fill="#156082" transform="matrix(-1 0 0 1 242.138 880)"/><rect x="330" y="640" width="185" height="56" stroke="#042433" stroke-width="2" stroke-miterlimit="8" fill="#156082"/><text fill="#FFFFFF" font-family="Aptos,Aptos_MSFontService,sans-serif" font-weight="700" font-size="11" transform="translate(364.32 672)">Workflow: Authorisation</text><path d="M374 600 374 629.561 372 629.561 372 600ZM377 628.227 373 636.227 369 628.227Z" fill="#156082"/><text font-family="Aptos,Aptos_MSFontService,sans-serif" font-weight="700" font-size="9" transform="translate(562.174 591)">Decline</text><path d="M374 696 374 729.343 372 729.343 372 696ZM377 728.01 373 736.01 369 728.01Z" fill="#156082"/><text font-family="Aptos,Aptos_MSFontService,sans-serif" font-weight="700" font-size="9" transform="translate(379.028 718)">Authorise</text><path d="M374 792 374 817.57 372 817.57 372 792ZM377 816.236 373 824.236 369 816.236Z" fill="#156082"/><text font-family="Aptos,Aptos_MSFontService,sans-serif" font-weight="700" font-size="9" transform="translate(387.364 809)">Approve</text><path d="M6.6666-0.999992 76.129-0.999903 76.129 1.0001 6.66659 1.00001ZM7.99999 4.00001 0 0 8-3.99999ZM74.7957-3.99991 82.7957 0.000104987 74.7957 4.00009Z" fill="#156082" transform="matrix(1 0 0 -1 340 948)"/><rect x="18" y="109" width="91" height="56" stroke="#042433" stroke-width="2" stroke-miterlimit="8" fill="#156082"/><text fill="#FFFFFF" font-family="Aptos,Aptos_MSFontService,sans-serif" font-weight="700" font-size="11" transform="translate(45.9296 141)">Started</text><rect x="188" y="420" width="152" height="40" stroke="#042433" stroke-width="2" stroke-miterlimit="8" fill="#156082"/><text fill="#FFFFFF" font-family="Aptos,Aptos_MSFontService,sans-serif" font-weight="700" font-size="11" transform="translate(236.684 443)">Requesting</text><path d="M243 373 243 410.952 241 410.952 241 373ZM246 409.619 242 417.619 238 409.619Z" fill="#156082"/><path d="M163 372 163 910.695 161 910.695 161 372ZM166 909.362 162 917.362 158 909.362Z" fill="#156082"/><path d="M65 79 65.0001 103.309 63.0001 103.309 63 79ZM68.0001 101.975 64.0001 109.975 60.0001 101.975Z" fill="#156082"/><text font-family="Aptos,Aptos_MSFontService,sans-serif" font-weight="700" font-size="9" transform="translate(74.5236 86)">Fill out blank form</text><path d="M0-1 179.767-1 179.767 80.2626 177.767 80.2626 177.767 0 178.767 1 0 1ZM182.767 78.9292 178.767 86.9292 174.767 78.9292Z" fill="#156082" transform="matrix(1.83697e-16 1 1 -1.83697e-16 64 165)"/><text font-family="Aptos,Aptos_MSFontService,sans-serif" font-weight="700" font-size="9" transform="translate(18.4677 236)">Submit</text><path d="M200 460 200 910.931 198 910.931 198 460ZM203 909.598 199 917.598 195 909.598Z" fill="#156082"/><path d="M243 460 243 537.272 241 537.272 241 460ZM246 535.939 242 543.939 238 535.939Z" fill="#156082"/><g><g><g><path d="M486 421.333C490.51 421.333 494.167 424.99 494.167 429.5 494.167 434.01 490.51 437.667 486 437.667 481.49 437.667 477.833 434.01 477.833 429.5 477.838 424.992 481.492 421.338 486 421.333M486 420.167C480.845 420.167 476.667 424.345 476.667 429.5 476.667 434.655 480.845 438.833 486 438.833 491.155 438.833 495.333 434.655 495.333 429.5 495.333 424.345 491.155 420.167 486 420.167Z"/><path d="M504.667 459.833 503.5 459.833 503.5 450.792C503.472 449.553 502.888 448.392 501.91 447.631 499.352 445.668 496.423 444.243 493.299 443.442 490.934 442.714 488.474 442.34 486 442.333 483.526 442.376 481.069 442.749 478.694 443.442 475.603 444.347 472.687 445.767 470.068 447.642 469.1 448.404 468.524 449.56 468.5 450.792L468.5 459.833 467.333 459.833 467.333 450.792C467.362 449.198 468.107 447.703 469.361 446.719 472.098 444.755 475.147 443.267 478.38 442.32 480.857 441.598 483.42 441.21 486 441.167 488.585 441.173 491.156 441.562 493.627 442.321 496.899 443.164 499.967 444.662 502.644 446.723 503.896 447.706 504.638 449.2 504.667 450.792Z"/></g></g></g><g><g><g><path d="M65 25.3333C69.5103 25.3333 73.1667 28.9897 73.1667 33.5 73.1667 38.0103 69.5103 41.6667 65 41.6667 60.4897 41.6667 56.8333 38.0103 56.8333 33.5 56.8378 28.9915 60.4915 25.3378 65 25.3333M65 24.1667C59.8453 24.1667 55.6667 28.3453 55.6667 33.5 55.6667 38.6547 59.8453 42.8333 65 42.8333 70.1547 42.8333 74.3333 38.6547 74.3333 33.5 74.3333 28.3453 70.1547 24.1667 65 24.1667Z"/><path d="M83.6667 63.8333 82.5 63.8333 82.5 54.7917C82.4722 53.5526 81.8885 52.3918 80.9104 51.6306 78.3521 49.6675 75.4229 48.2426 72.2992 47.4417 69.9342 46.7139 67.4744 46.3404 65 46.3333 62.5263 46.3763 60.0694 46.749 57.6943 47.4417 54.6033 48.347 51.687 49.7669 49.068 51.6417 48.0998 52.4037 47.5243 53.5598 47.5 54.7917L47.5 63.8333 46.3333 63.8333 46.3333 54.7917C46.3623 53.1983 47.107 51.7027 48.361 50.7194 51.0977 48.7549 54.147 47.2674 57.3799 46.3199 59.8573 45.5981 62.42 45.2102 65 45.1667 67.5854 45.173 70.1556 45.562 72.6271 46.3211 75.8993 47.1642 78.9667 48.6616 81.6442 50.7229 82.8957 51.7062 83.6384 53.2003 83.6667 54.7917Z"/></g></g></g><path d="M0.000174009-1 111.589-0.980583 111.588 1.01942-0.000174009 1ZM110.256-3.98081 118.255 0.0205774 110.255 4.01919Z" fill="#156082" transform="matrix(1 0 0 -1 340 440.021)"/><path d="M0-1 20.7745-1 20.7745 196.976 19.7745 195.976 32.8821 195.976 32.8821 197.976 18.7745 197.976 18.7745 0 19.7745 1 0 1ZM31.5488 192.976 39.5488 196.976 31.5488 200.976Z" fill="#156082" transform="matrix(-1.83697e-16 -1 -1 1.83697e-16 482.976 412.549)"/><rect x="144" y="1149" width="195" height="55" stroke="#042433" stroke-width="2" stroke-miterlimit="8" fill="#156082"/><text fill="#FFFFFF" font-family="Aptos,Aptos_MSFontService,sans-serif" font-weight="700" font-size="11" transform="translate(197.915 1180)">Delivered (Purged)</text><path d="M173 1087 173 1135.79 171 1135.79 171 1087ZM176 1134.46 172 1142.46 168 1134.46Z" fill="#156082"/><text font-family="Aptos,Aptos_MSFontService,sans-serif" font-weight="700" font-size="9" transform="translate(183.487 1001)">After all integrations</text><text font-family="Aptos,Aptos_MSFontService,sans-serif" font-weight="700" font-size="9" transform="translate(183.487 1012)">completed or cancelled</text><text font-family="Aptos,Aptos_MSFontService,sans-serif" font-weight="700" font-size="9" transform="translate(179.739 1114)">Data Retention Period</text><rect x="540" y="824" width="133" height="56" stroke="#042433" stroke-width="2" stroke-miterlimit="8" fill="#156082"/><text fill="#FFFFFF" font-family="Aptos,Aptos_MSFontService,sans-serif" font-weight="700" font-size="11" transform="translate(558.987 856)">Workflow: Declined</text><path d="M412 571 607.784 571 607.784 817.754 605.784 817.754 605.784 572 606.784 573 412 573ZM610.784 816.42 606.784 824.42 602.784 816.42Z" fill="#156082"/><rect x="476" y="1149" width="195" height="55" stroke="#042433" stroke-width="2" stroke-miterlimit="8" fill="#156082"/><text fill="#FFFFFF" font-family="Aptos,Aptos_MSFontService,sans-serif" font-weight="700" font-size="11" transform="translate(533.534 1180)">Deleted (Purged)</text><rect x="476" y="1031" width="195" height="56" stroke="#042433" stroke-width="2" stroke-miterlimit="8" fill="#156082"/><text fill="#FFFFFF" font-family="Aptos,Aptos_MSFontService,sans-serif" font-weight="700" font-size="11" transform="translate(554.451 1062)">Deleted</text><path d="M1-6.9696e-07 1.0001 143.969-0.9999 143.969-1 6.9696e-07ZM4.0001 142.635 0.000104987 150.635-3.9999 142.635Z" fill="#156082" transform="matrix(-1 0 0 1 606 880)"/><path d="M606 1087 606 1141.43 604 1141.43 604 1087ZM609 1140.09 605 1148.09 601 1140.09Z" fill="#156082"/><text font-family="Aptos,Aptos_MSFontService,sans-serif" font-weight="700" font-size="9" transform="translate(505.533 1118)">Data Retention Period</text><text font-family="Aptos,Aptos_MSFontService,sans-serif" font-weight="700" font-size="9" transform="translate(386.828 618)">Request Authorisation</text><path d="M318 559.667 318 513.798 625.687 513.798 624.687 514.798 624.687 260 625.687 261 340.413 261 340.413 259 626.687 259 626.687 515.798 319 515.798 320 514.798 320 559.667ZM341.746 264 333.746 260 341.746 256Z" fill="#156082"/><text font-family="Aptos,Aptos_MSFontService,sans-serif" font-weight="700" font-size="9" transform="translate(366.924 504)">Return</text><g><g><g><path d="M39.3021 40.3229 39.3021 9.69792C39.3021 6.71402 31.6759 5.10417 24.5 5.10417 17.3241 5.10417 9.69792 6.71402 9.69792 9.69792L9.69792 40.3229C9.69792 43.3068 17.3241 44.9167 24.5 44.9167 31.6759 44.9167 39.3021 43.3068 39.3021 40.3229ZM24.5 6.125C32.3875 6.125 38.2812 8.01354 38.2812 9.69792 38.2812 11.3823 32.3875 13.2708 24.5 13.2708 16.6125 13.2708 10.7188 11.3823 10.7188 9.69792 10.7188 8.01354 16.6125 6.125 24.5 6.125ZM10.7188 11.464C13.0304 13.3117 18.9023 14.2917 24.5 14.2917 30.0977 14.2917 35.9696 13.3117 38.2812 11.464L38.2812 19.9062C38.2812 21.5906 32.3875 23.4792 24.5 23.4792 16.6125 23.4792 10.7188 21.5906 10.7188 19.9062ZM10.7188 21.6723C13.0304 23.52 18.9023 24.5 24.5 24.5 30.0977 24.5 35.9696 23.52 38.2812 21.6723L38.2812 30.1146C38.2812 31.799 32.3875 33.6875 24.5 33.6875 16.6125 33.6875 10.7188 31.799 10.7188 30.1146ZM10.7188 40.3229 10.7188 31.8806C13.0304 33.7283 18.9023 34.7083 24.5 34.7083 30.0977 34.7083 35.9696 33.7283 38.2812 31.8806L38.2812 40.3229C38.2812 42.0073 32.3875 43.8958 24.5 43.8958 16.6125 43.8958 10.7188 42.0073 10.7188 40.3229Z" transform="matrix(1.02041 0 0 1 172 22)"/><path d="M35.7292 18.375C35.7292 18.9388 35.2721 19.3958 34.7083 19.3958 34.1445 19.3958 33.6875 18.9388 33.6875 18.375 33.6875 17.8112 34.1445 17.3542 34.7083 17.3542 35.2721 17.3542 35.7292 17.8112 35.7292 18.375Z" transform="matrix(1.02041 0 0 1 172 22)"/><path d="M35.7292 28.5833C35.7292 29.1471 35.2721 29.6042 34.7083 29.6042 34.1445 29.6042 33.6875 29.1471 33.6875 28.5833 33.6875 28.0195 34.1445 27.5625 34.7083 27.5625 35.2721 27.5625 35.7292 28.0195 35.7292 28.5833Z" transform="matrix(1.02041 0 0 1 172 22)"/><path d="M35.7292 38.7917C35.7292 39.3555 35.2721 39.8125 34.7083 39.8125 34.1445 39.8125 33.6875 39.3555 33.6875 38.7917 33.6875 38.2279 34.1445 37.7708 34.7083 37.7708 35.2721 37.7708 35.7292 38.2279 35.7292 38.7917Z" transform="matrix(1.02041 0 0 1 172 22)"/></g></g></g><g><g><g><path d="M401 178.333C405.51 178.333 409.167 181.99 409.167 186.5 409.167 191.01 405.51 194.667 401 194.667 396.49 194.667 392.833 191.01 392.833 186.5 392.838 181.992 396.492 178.338 401 178.333M401 177.167C395.845 177.167 391.667 181.345 391.667 186.5 391.667 191.655 395.845 195.833 401 195.833 406.155 195.833 410.333 191.655 410.333 186.5 410.333 181.345 406.155 177.167 401 177.167Z"/><path d="M419.667 216.833 418.5 216.833 418.5 207.792C418.472 206.553 417.888 205.392 416.91 204.631 414.352 202.668 411.423 201.243 408.299 200.442 405.934 199.714 403.474 199.34 401 199.333 398.526 199.376 396.069 199.749 393.694 200.442 390.603 201.347 387.687 202.767 385.068 204.642 384.1 205.404 383.524 206.56 383.5 207.792L383.5 216.833 382.333 216.833 382.333 207.792C382.362 206.198 383.107 204.703 384.361 203.719 387.098 201.755 390.147 200.267 393.38 199.32 395.857 198.598 398.42 198.21 401 198.167 403.585 198.173 406.156 198.562 408.627 199.321 411.899 200.164 414.967 201.662 417.644 203.723 418.896 204.706 419.638 206.2 419.667 207.792Z"/></g></g></g><path d="M242 136 695.832 136 695.832 1059.97 677.497 1059.97 677.497 1057.97 694.832 1057.97 693.832 1058.97 693.832 137 694.832 138 242 138ZM678.83 1062.97 670.83 1058.97 678.83 1054.97Z" fill="#156082"/><text font-family="Aptos,Aptos_MSFontService,sans-serif" font-weight="700" font-size="9" transform="translate(655.76 125)">Expire</text><path d="M332 244 695.894 244" stroke="#156082" stroke-width="2" stroke-miterlimit="8" fill="none" fill-rule="evenodd"/><text font-family="Aptos,Aptos_MSFontService,sans-serif" font-weight="700" font-size="9" transform="translate(654.94 231)">Expire</text><path d="M288 271.989 288.424 309.409 286.424 309.431 286 272.011ZM291.409 308.041 287.5 316.086 283.409 308.132Z" fill="#156082"/><path d="M412 554 696.122 554" stroke="#156082" stroke-width="2" stroke-miterlimit="8" fill="none" fill-rule="evenodd"/><text font-family="Aptos,Aptos_MSFontService,sans-serif" font-weight="700" font-size="9" transform="translate(648.032 541)">Expire</text><path d="M6.66666-0.999994 101.397-0.999901 101.397 1.0001 6.66666 1.00001ZM8 4.00001 0 0 8-3.99999ZM100.064-3.9999 108.064 0.000104987 100.064 4.0001Z" fill="#156082" transform="matrix(1 0 0 -1 336 344)"/><g><g><g><path d="M30.6271 110.127C32.1754 110.212 36.6926 110.25 36.6926 110.25L119.444 110.25C129.629 110.21 137.853 101.92 137.813 91.7352 137.773 81.6668 129.665 73.4911 119.597 73.3677L118.066 73.3677C118.052 65.9476 114.46 58.9899 108.419 54.6809 102.299 50.3988 94.4945 49.3165 87.4399 51.7716 80.5131 38.2284 63.9188 32.8648 50.3757 39.7915 41.2115 44.4787 35.4256 53.8845 35.3748 64.1777L35.3748 64.484C34.1734 64.2874 32.9582 64.1885 31.7408 64.188 19.0319 64.1733 8.71741 74.4639 8.70263 87.1727 8.69871 90.5535 9.43977 93.8936 10.8731 96.9555 14.593 104.594 22.1457 109.63 30.6271 110.127ZM15.7705 75.2092C19.591 70.247 25.4777 67.313 31.7399 67.2502 32.7914 67.2511 33.8411 67.3366 34.879 67.5058L38.4362 68.0876 38.4362 64.1771C38.5194 50.6548 49.5488 39.7604 63.0711 39.8436 72.2069 39.8998 80.5514 45.0376 84.7149 53.1697L85.931 55.5384 88.4456 54.6636C98.7783 50.9695 110.149 56.3509 113.844 66.6836 114.61 68.8286 115.003 71.0897 115.003 73.3677L115.003 76.4302 119.597 76.4302C128.09 76.5552 134.874 83.5413 134.749 92.0342 134.626 100.411 127.821 107.148 119.444 107.188L33.5224 107.188 30.7934 107.069C19.8161 106.596 11.3008 97.3135 11.7741 86.3362 11.9478 82.3079 13.3413 78.4276 15.77 75.2092Z" transform="matrix(1.0068 0 0 1 416 858)"/></g></g></g><g><g><g><path d="M499.302 952.323 499.302 921.698C499.302 918.714 491.676 917.104 484.5 917.104 477.324 917.104 469.698 918.714 469.698 921.698L469.698 952.323C469.698 955.307 477.324 956.917 484.5 956.917 491.676 956.917 499.302 955.307 499.302 952.323ZM484.5 918.125C492.387 918.125 498.281 920.014 498.281 921.698 498.281 923.382 492.387 925.271 484.5 925.271 476.613 925.271 470.719 923.382 470.719 921.698 470.719 920.014 476.613 918.125 484.5 918.125ZM470.719 923.464C473.03 925.312 478.902 926.292 484.5 926.292 490.098 926.292 495.97 925.312 498.281 923.464L498.281 931.906C498.281 933.591 492.387 935.479 484.5 935.479 476.613 935.479 470.719 933.591 470.719 931.906ZM470.719 933.672C473.03 935.52 478.902 936.5 484.5 936.5 490.098 936.5 495.97 935.52 498.281 933.672L498.281 942.115C498.281 943.799 492.387 945.688 484.5 945.688 476.613 945.688 470.719 943.799 470.719 942.115ZM470.719 952.323 470.719 943.881C473.03 945.728 478.902 946.708 484.5 946.708 490.098 946.708 495.97 945.728 498.281 943.881L498.281 952.323C498.281 954.007 492.387 955.896 484.5 955.896 476.613 955.896 470.719 954.007 470.719 952.323Z"/><path d="M495.729 930.375C495.729 930.939 495.272 931.396 494.708 931.396 494.145 931.396 493.688 930.939 493.688 930.375 493.688 929.811 494.145 929.354 494.708 929.354 495.272 929.354 495.729 929.811 495.729 930.375Z"/><path d="M495.729 940.583C495.729 941.147 495.272 941.604 494.708 941.604 494.145 941.604 493.688 941.147 493.688 940.583 493.688 940.02 494.145 939.562 494.708 939.562 495.272 939.562 495.729 940.02 495.729 940.583Z"/><path d="M495.729 950.792C495.729 951.355 495.272 951.812 494.708 951.812 494.145 951.812 493.688 951.355 493.688 950.792 493.688 950.228 494.145 949.771 494.708 949.771 495.272 949.771 495.729 950.228 495.729 950.792Z"/></g></g></g><g><g><g><path d="M470.835 366.877C472.394 366.962 476.942 367 476.942 367L560.257 367C570.511 366.959 578.791 358.614 578.75 348.359 578.71 338.222 570.547 329.991 560.411 329.867L558.869 329.867C558.855 322.396 555.239 315.391 549.157 311.053 542.995 306.742 535.137 305.652 528.035 308.124 521.061 294.488 504.354 289.088 490.718 296.062 481.492 300.781 475.667 310.251 475.615 320.614L475.615 320.923C474.406 320.725 473.182 320.625 471.957 320.625 459.161 320.61 448.777 330.97 448.762 343.766 448.758 347.17 449.504 350.532 450.947 353.615 454.692 361.305 462.296 366.376 470.835 366.877ZM455.878 331.721C459.724 326.725 465.651 323.771 471.956 323.708 473.014 323.709 474.071 323.795 475.116 323.965L478.698 324.551 478.698 320.614C478.781 306.999 489.886 296.031 503.5 296.115 512.698 296.171 521.099 301.344 525.291 309.531L526.516 311.916 529.047 311.035C539.45 307.316 550.899 312.734 554.618 323.137 555.39 325.297 555.785 327.573 555.786 329.867L555.786 332.95 560.411 332.95C568.961 333.076 575.791 340.11 575.665 348.66 575.541 357.094 568.691 363.877 560.257 363.917L473.75 363.917 471.003 363.798C459.951 363.321 451.378 353.976 451.854 342.923 452.029 338.868 453.432 334.961 455.877 331.721Z"/></g></g></g><g><g><g><path d="M15.8125 13.2183 14.2346 11.6404 13.5571 12.3179 15.8125 14.5734 20.4638 9.9221 19.7862 9.24456 15.8125 13.2183Z" transform="matrix(1.02174 0 0 1 483 311)"/><path d="M23.4792 11.9792 32.5833 11.9792 32.5833 12.9375 23.4792 12.9375Z" transform="matrix(1.02174 0 0 1 483 311)"/><path d="M15.8125 20.4058 14.2346 18.8279 13.5571 19.5054 15.8125 21.7609 20.4638 17.1096 19.7862 16.4321 15.8125 20.4058Z" transform="matrix(1.02174 0 0 1 483 311)"/><path d="M23.4792 19.1667 32.5833 19.1667 32.5833 20.125 23.4792 20.125Z" transform="matrix(1.02174 0 0 1 483 311)"/><path d="M15.8125 27.5933 14.2346 26.0154 13.5571 26.6929 15.8125 28.9484 20.4638 24.2971 19.7862 23.6196 15.8125 27.5933Z" transform="matrix(1.02174 0 0 1 483 311)"/><path d="M23.4792 26.3542 32.5833 26.3542 32.5833 27.3125 23.4792 27.3125Z" transform="matrix(1.02174 0 0 1 483 311)"/><path d="M15.8125 34.7808 14.2346 33.2029 13.5571 33.8804 15.8125 36.1359 20.4638 31.4846 19.7862 30.8071 15.8125 34.7808Z" transform="matrix(1.02174 0 0 1 483 311)"/><path d="M23.4792 33.5417 32.5833 33.5417 32.5833 34.5 23.4792 34.5Z" transform="matrix(1.02174 0 0 1 483 311)"/><path d="M8.625 42.1667 37.375 42.1667 37.375 3.83333 8.625 3.83333ZM9.58333 4.79167 36.4167 4.79167 36.4167 41.2083 9.58333 41.2083Z" transform="matrix(1.02174 0 0 1 483 311)"/></g></g></g><path d="M0-1 199.94-1 199.94 42.9062 197.94 42.9062 197.94 0 198.94 1 0 1ZM202.94 41.5728 198.94 49.5728 194.94 41.5728Z" fill="#156082" transform="matrix(1.83697e-16 1 1 -1.83697e-16 177 373)"/><rect x="39" y="514" width="101" height="40" stroke="#042433" stroke-width="2" stroke-miterlimit="8" fill="#156082"/><text fill="#FFFFFF" font-family="Aptos,Aptos_MSFontService,sans-serif" font-weight="700" font-size="11" transform="translate(75.3317 538)">Spam</text><path d="M0-1 85.913-1 85.913 151.026 83.913 151.026 83.913 0 84.913 1 0 1ZM88.913 149.692 84.913 157.692 80.913 149.692Z" fill="#156082" transform="matrix(-1 1.22465e-16 1.22465e-16 1 148.913 356)"/><path d="M0 0 683.167 0 683.167 347.262" stroke="#156082" stroke-width="2" stroke-miterlimit="8" fill="none" fill-rule="evenodd" transform="matrix(1.83697e-16 1 1 -1.83697e-16 89.0001 554)"/><path d="M433 1237.59 433 1058 469.728 1058 469.728 1060 434 1060 435 1059 435 1237.59ZM468.395 1055 476.395 1059 468.395 1063Z" fill="#156082"/><path d="M88.0001 513.872 88.0001 363.936 141.984 363.947 141.984 365.947 88.9999 365.936 90.0001 364.936 90.0001 513.872ZM140.682 360.936 148.65 365 140.618 368.936Z" fill="#156082"/><text font-family="Aptos,Aptos_MSFontService,sans-serif" font-weight="700" font-size="9" transform="translate(99.7566 577)">Delete</text><text font-family="Aptos,Aptos_MSFontService,sans-serif" font-weight="700" font-size="9" transform="translate(99.653 388)">Keep</text></g></svg>